<svg width="65" height="29" viewBox="0 0 65 29" fill="none" xmlns="http://www.w3.org/2000/svg">
<path d="M3.87406 0.9375V18H0.651405V0.9375H3.87406ZM16.0306 3.52734L11.1673 18H7.75719L14.1322 0.9375H16.3119L16.0306 3.52734ZM20.097 18L15.2103 3.52734L14.9173 0.9375H17.1087L23.5189 18H20.097ZM19.8744 11.6602V14.2031H10.722V11.6602H19.8744ZM40.6677 0.9375V18H37.4333L30.1794 6.16406V18H26.9567V0.9375H30.1794L37.4567 12.7852V0.9375H40.6677ZM47.0352 0.9375H49.8242L54.4883 13.7812L59.1406 0.9375H61.9414L55.6016 18H53.3633L47.0352 0.9375ZM45.6289 0.9375H48.3594L48.8516 12.7383V18H45.6289V0.9375ZM60.6055 0.9375H63.3477V18H60.125V12.7383L60.6055 0.9375Z" fill="#1C658C"/>
<path d="M52.0173 19.4688V28H50.8805L46.5856 21.4199V28H45.4548V19.4688H46.5856L50.8981 26.0664V19.4688H52.0173ZM57.328 28.1172C56.8866 28.1172 56.4862 28.043 56.1268 27.8945C55.7713 27.7422 55.4647 27.5293 55.2069 27.2559C54.953 26.9824 54.7577 26.6582 54.6209 26.2832C54.4842 25.9082 54.4159 25.498 54.4159 25.0527V24.8066C54.4159 24.291 54.492 23.832 54.6444 23.4297C54.7967 23.0234 55.0037 22.6797 55.2655 22.3984C55.5272 22.1172 55.8241 21.9043 56.1561 21.7598C56.4881 21.6152 56.8319 21.543 57.1873 21.543C57.6405 21.543 58.0311 21.6211 58.3592 21.7773C58.6912 21.9336 58.9627 22.1523 59.1737 22.4336C59.3846 22.7109 59.5409 23.0391 59.6424 23.418C59.744 23.793 59.7948 24.2031 59.7948 24.6484V25.1348H55.0604V24.25H58.7108V24.168C58.6952 23.8867 58.6366 23.6133 58.535 23.3477C58.4373 23.082 58.2811 22.8633 58.0662 22.6914C57.8514 22.5195 57.5584 22.4336 57.1873 22.4336C56.9412 22.4336 56.7147 22.4863 56.5077 22.5918C56.3006 22.6934 56.1229 22.8457 55.9745 23.0488C55.826 23.252 55.7108 23.5 55.6287 23.793C55.5467 24.0859 55.5057 24.4238 55.5057 24.8066V25.0527C55.5057 25.3535 55.5467 25.6367 55.6287 25.9023C55.7147 26.1641 55.8377 26.3945 55.9979 26.5938C56.162 26.793 56.3592 26.9492 56.5897 27.0625C56.8241 27.1758 57.0897 27.2324 57.3866 27.2324C57.7694 27.2324 58.0936 27.1543 58.3592 26.998C58.6248 26.8418 58.8573 26.6328 59.0565 26.3711L59.7127 26.8926C59.576 27.0996 59.4022 27.2969 59.1912 27.4844C58.9803 27.6719 58.7205 27.8242 58.412 27.9414C58.1073 28.0586 57.7459 28.1172 57.328 28.1172ZM64.5547 21.6602V22.4922H61.127V21.6602H64.5547ZM62.2871 20.1191H63.3711V26.4297C63.3711 26.6445 63.4043 26.8066 63.4707 26.916C63.5371 27.0254 63.623 27.0977 63.7285 27.1328C63.834 27.168 63.9473 27.1855 64.0684 27.1855C64.1582 27.1855 64.252 27.1777 64.3496 27.1621C64.4512 27.1426 64.5273 27.127 64.5781 27.1152L64.584 28C64.498 28.0273 64.3848 28.0527 64.2441 28.0762C64.1074 28.1035 63.9414 28.1172 63.7461 28.1172C63.4805 28.1172 63.2363 28.0645 63.0137 27.959C62.791 27.8535 62.6133 27.6777 62.4805 27.4316C62.3516 27.1816 62.2871 26.8457 62.2871 26.4238V20.1191Z" fill="#BC3431"/>
</svg>
