<svg width="309" height="218" viewBox="0 0 309 218" fill="none" xmlns="http://www.w3.org/2000/svg">
<path d="M196.163 5.12578C184.356 4.36484 172.404 6.07039 160.544 5.33569C148.448 4.601 136.627 1.39983 124.544 0.31091C112.461 -0.778011 99.4461 0.783212 89.9869 8.3663C100.439 10.7995 110.252 15.4331 118.771 21.9581C105.337 24.6476 91.4301 23.2701 77.7857 24.582C64.1414 25.894 49.6968 30.5514 41.9301 41.8473C48.6398 40.4417 55.6198 41.1431 61.9157 43.8554C68.2117 46.5678 73.5161 51.1587 77.1035 57.0004C65.2122 68.2039 49.6159 74.6432 33.2843 75.0922C36.5117 89.1039 51.6517 96.4246 65.1779 101.331C78.7041 106.238 94.0408 111.932 99.3936 125.288L83.1516 128.108C94.3032 136.728 102.975 148.063 112.015 158.926C121.054 169.789 130.697 180.495 143.082 187.225C155.466 193.955 171.144 196.133 183.621 189.547L273.7 68.152C264.188 33.8707 231.599 7.38234 196.163 5.12578Z" fill="#AC1502"/>
<path d="M288.035 130.423C299.139 82.0551 268.931 33.8436 220.564 22.7392C172.196 11.6349 123.985 41.8428 112.88 90.2104C101.776 138.578 131.984 186.79 180.351 197.894C228.719 208.998 276.931 178.79 288.035 130.423Z" fill="#F5F5F5"/>
<path d="M282.896 108.167C282.789 86.9458 274.409 66.6037 259.538 51.4652C244.666 36.3267 224.476 27.5858 203.261 27.101C202.631 27.101 202.015 27.101 201.372 27.101C190.304 27.0935 179.352 29.3446 169.185 33.7165C159.018 38.0883 149.85 44.4889 142.242 52.5266C127.913 67.5804 119.898 87.5538 119.847 108.337C119.847 108.429 119.847 108.534 119.847 108.626C119.828 129.983 128.217 150.489 143.2 165.709L165.385 141.713C156.938 132.77 152.242 120.928 152.265 108.626C152.265 108.521 152.265 108.416 152.265 108.311C152.321 96.4739 156.745 85.0743 164.69 76.2993C169.195 71.2826 174.705 67.2689 180.862 64.5183C187.018 61.7678 193.684 60.3418 200.427 60.3328C201.293 60.3328 202.159 60.3328 203.051 60.4115C215.305 61.075 226.846 66.3826 235.325 75.2543C243.805 84.1259 248.585 95.895 248.694 108.167C248.694 108.298 248.694 108.442 248.694 108.586C248.699 114.925 247.451 121.201 245.021 127.055C242.592 132.909 239.029 138.225 234.538 142.697L258.822 166.404C266.46 158.833 272.52 149.822 276.652 139.893C280.784 129.964 282.907 119.315 282.896 108.56C282.91 108.442 282.896 108.298 282.896 108.167Z" fill="#AC1502"/>
<path d="M164.69 76.273C158.484 69.7133 147.332 57.7876 142.242 52.5398L164.65 76.273H164.69Z" fill="#AC1502"/>
<g opacity="0.6">
<path opacity="0.6" d="M248.707 108.586C248.712 114.925 247.464 121.201 245.035 127.055C242.605 132.909 239.042 138.225 234.551 142.697L258.835 166.404C266.473 158.833 272.533 149.822 276.665 139.893C280.798 129.964 282.92 119.315 282.91 108.56C282.91 108.416 282.91 108.272 282.91 108.14H248.694C248.694 108.298 248.707 108.442 248.707 108.586Z" fill="black"/>
</g>
<g opacity="0.5">
<path opacity="0.5" d="M248.694 108.167H282.896C282.818 87.0409 274.512 66.7768 259.74 51.6739L235.509 75.4465C243.897 84.2845 248.611 95.9818 248.694 108.167Z" fill="black"/>
</g>
<g opacity="0.4">
<path opacity="0.4" d="M203.051 60.4115C215.402 61.0584 227.028 66.4437 235.509 75.4465L259.741 51.6739C244.871 36.3842 224.584 27.5577 203.261 27.101L203.051 60.3983V60.4115Z" fill="black"/>
</g>
<g opacity="0.3">
<path opacity="0.3" d="M200.427 60.3328C201.293 60.3328 202.159 60.3327 203.051 60.4115L203.261 27.1141C202.631 27.1141 202.015 27.1141 201.372 27.1141C190.305 27.1066 179.352 29.3577 169.185 33.7296C159.018 38.1014 149.85 44.502 142.242 52.5397C147.332 57.7876 158.484 69.5951 164.69 76.273C169.198 71.2611 174.709 67.2523 180.865 64.5063C187.021 61.7603 193.686 60.3384 200.427 60.3328Z" fill="black"/>
</g>
<g opacity="0.2">
<path opacity="0.2" d="M152.226 108.272C152.281 96.4346 156.706 85.0349 164.65 76.2599L142.242 52.4873C127.913 67.5411 119.898 87.5145 119.847 108.298C126.079 108.416 141.061 108.337 152.226 108.272Z" fill="black"/>
</g>
<path d="M290.322 110.384C290.322 110.384 290.322 109.885 290.322 108.927V107.13C290.322 106.422 290.322 105.595 290.204 104.651C290.086 103.706 290.047 102.669 289.955 101.515C289.863 100.36 289.653 99.101 289.482 97.7365C289.102 95.0208 288.499 91.8983 287.659 88.4348C286.681 84.5965 285.449 80.8273 283.972 77.152C282.235 72.7746 280.147 68.545 277.727 64.5048C271.81 54.6289 264.067 45.9691 254.913 38.9873C243.802 30.5288 230.867 24.7869 217.141 22.2205C209.52 20.7875 201.746 20.3466 194.012 20.9086C189.968 21.1936 185.948 21.7547 181.981 22.5879C177.914 23.4681 173.908 24.6119 169.99 26.0121C165.988 27.497 162.092 29.2502 158.327 31.2599C154.481 33.3346 150.786 35.6756 147.267 38.2657C143.703 40.9382 140.323 43.8486 137.152 46.9771C133.962 50.212 131.003 53.6665 128.296 57.3153C125.545 61.0501 123.097 64.9985 120.975 69.1228C120.464 70.1593 119.873 71.1826 119.414 72.2584C118.955 73.3342 118.443 74.3838 117.971 75.4596C117.105 77.6505 116.2 79.8284 115.491 82.0193C113.975 86.5445 112.834 91.1871 112.08 95.8998C110.514 105.457 110.514 115.206 112.08 124.763C112.838 129.476 113.983 134.118 115.504 138.643L116.069 140.323L116.357 141.162L116.672 141.989L117.984 145.282L119.44 148.483C119.899 149.559 120.477 150.582 121.001 151.618C123.124 155.74 125.567 159.688 128.309 163.426C131.012 167.077 133.972 170.532 137.165 173.764C140.344 176.894 143.727 179.808 147.293 182.489C150.81 185.072 154.501 187.408 158.34 189.481C165.761 193.469 173.713 196.38 181.955 198.127C185.923 198.954 189.942 199.515 193.985 199.806C201.72 200.376 209.495 199.935 217.115 198.495C224.24 197.174 231.172 194.97 237.752 191.935C243.837 189.174 249.59 185.732 254.899 181.675C264.046 174.694 271.784 166.039 277.701 156.171C280.124 152.128 282.212 147.894 283.946 143.511C285.421 139.839 286.652 136.074 287.633 132.241C288.507 128.742 289.115 125.637 289.456 122.926C289.627 121.614 289.81 120.302 289.929 119.161C290.047 118.019 290.099 116.957 290.178 116.025C290.257 115.094 290.283 114.254 290.296 113.546V111.748C290.296 110.79 290.296 110.292 290.296 110.292C290.296 110.292 290.296 110.79 290.296 111.748C290.296 112.234 290.296 112.824 290.296 113.546C290.296 114.267 290.296 115.081 290.191 116.025C290.086 116.97 290.047 118.006 289.955 119.174C289.863 120.341 289.666 121.575 289.509 122.952C289.128 125.668 288.551 128.79 287.711 132.267C286.747 136.115 285.524 139.893 284.051 143.576C282.331 147.982 280.251 152.238 277.832 156.302C271.919 166.207 264.176 174.898 255.017 181.911C243.881 190.422 230.904 196.2 217.128 198.783C209.482 200.224 201.68 200.665 193.92 200.095C189.864 199.804 185.831 199.243 181.85 198.416C173.558 196.675 165.558 193.759 158.09 189.757C154.238 187.675 150.534 185.33 147.004 182.738C139.719 177.363 133.291 170.914 127.942 163.61C125.192 159.869 122.735 155.922 120.595 151.802C120.07 150.753 119.493 149.729 119.02 148.653L117.564 145.426L116.252 142.133L115.924 141.306L115.636 140.467L115.071 138.774C113.53 134.226 112.371 129.557 111.608 124.815C110.848 120.042 110.454 115.217 110.427 110.384C110.457 105.529 110.852 100.683 111.608 95.8867C112.372 91.162 113.517 86.5069 115.032 81.9668C115.754 79.6972 116.659 77.5062 117.525 75.3153L118.981 72.0878C119.44 71.012 120.031 69.9887 120.542 68.9392C122.679 64.8176 125.136 60.8697 127.889 57.1316C130.606 53.467 133.578 49.9991 136.784 46.754C139.97 43.6087 143.367 40.685 146.952 38.0033C153.93 32.8452 161.613 28.7183 169.767 25.7497C173.701 24.3554 177.719 23.2117 181.797 22.3255C193.421 19.9095 205.403 19.7803 217.076 21.945C230.843 24.5348 243.813 30.308 254.952 38.8036C264.132 45.7931 271.897 54.4665 277.832 64.3604C282.266 71.8464 285.598 79.9325 287.724 88.3692C288.564 91.8327 289.141 94.929 289.522 97.6841C289.679 98.996 289.863 100.308 289.968 101.462C290.073 102.617 290.138 103.667 290.204 104.611C290.27 105.556 290.309 106.382 290.309 107.091C290.309 107.799 290.309 108.403 290.309 108.888C290.322 109.846 290.322 110.384 290.322 110.384Z" fill="#263238"/>
<path d="M208.599 127.611C218.137 123.619 222.633 112.651 218.641 103.113C214.649 93.5747 203.681 89.0786 194.143 93.0704C184.605 97.0622 180.109 108.03 184.101 117.568C188.093 127.106 199.061 131.602 208.599 127.611Z" fill="#E0E0E0"/>
<path d="M195.862 111.591C196.049 112.263 196.368 112.891 196.8 113.438C197.233 113.986 197.77 114.441 198.381 114.778C198.992 115.116 199.664 115.328 200.358 115.402C201.051 115.476 201.753 115.412 202.421 115.212L267.534 96.7395L200.335 104.821C199.568 104.912 198.83 105.169 198.173 105.574C197.515 105.98 196.954 106.524 196.528 107.168C196.102 107.813 195.822 108.542 195.707 109.306C195.592 110.07 195.645 110.849 195.862 111.591Z" fill="#455A64"/>
<path d="M235.246 90.7045C235.191 90.6283 235.146 90.5443 235.115 90.4552L234.748 89.6943C234.577 89.3663 234.407 88.9465 234.157 88.4742L233.226 86.7686C232.885 86.152 232.452 85.4567 232.006 84.7876C231.56 84.1185 230.996 83.3313 230.405 82.531C229.032 80.7507 227.519 79.0835 225.879 77.5456C221.595 73.5765 216.489 70.6019 210.923 68.8342C207.629 67.8041 204.205 67.2475 200.755 67.1812C193.306 67.0314 185.967 68.9868 179.58 72.8226C176.615 74.5926 173.92 76.7797 171.577 79.3168C167.609 83.6297 164.647 88.7692 162.905 94.3648C162.256 96.5111 161.774 98.7042 161.462 100.925C161.344 101.909 161.252 102.827 161.187 103.667C161.121 104.506 161.108 105.293 161.121 105.989C161.134 106.684 161.121 107.301 161.121 107.852C161.121 108.403 161.187 108.836 161.213 109.164C161.239 109.492 161.213 109.793 161.278 110.003C161.295 110.099 161.295 110.196 161.278 110.292V110.003C161.278 109.807 161.278 109.531 161.187 109.177C161.095 108.823 161.082 108.35 161.055 107.865C161.029 107.379 161.055 106.71 160.977 106.002C160.898 105.293 160.977 104.532 160.977 103.68C160.977 102.827 161.121 101.895 161.226 100.911C161.51 98.6681 161.98 96.4521 162.63 94.2861C164.352 88.6388 167.315 83.448 171.302 79.0937C173.661 76.5292 176.378 74.3197 179.37 72.5339C185.809 68.6568 193.215 66.6869 200.729 66.8532C204.207 66.9207 207.657 67.4862 210.975 68.5325C216.603 70.3268 221.758 73.357 226.063 77.4013C227.706 78.9585 229.224 80.643 230.602 82.4392C231.192 83.2395 231.717 84.0004 232.189 84.722C232.662 85.4436 233.055 86.0995 233.383 86.7162L234.249 88.3692C234.485 88.8546 234.656 89.2745 234.813 89.6156L235.141 90.3896C235.185 90.4916 235.22 90.5969 235.246 90.7045Z" fill="#263238"/>
<path d="M227.506 88.7759C227.382 88.6525 227.272 88.5161 227.178 88.3692C226.968 88.1068 226.705 87.6739 226.299 87.1753C225.222 85.7205 224.029 84.3559 222.73 83.0952C219.398 79.8257 215.41 77.3012 211.029 75.6886C206.648 74.076 201.974 73.4121 197.318 73.741C194.623 73.9229 191.959 74.4205 189.38 75.2234C187.641 75.7602 185.947 76.4358 184.316 77.2439C183.739 77.5194 183.306 77.7818 183.004 77.9261C182.854 78.0155 182.696 78.0902 182.532 78.1491C182.666 78.0388 182.811 77.9421 182.965 77.8605C183.254 77.6899 183.673 77.4144 184.277 77.1258C185.898 76.2603 187.593 75.5403 189.341 74.9742C193.812 73.4853 198.552 72.9794 203.237 73.4911C207.922 74.0028 212.441 75.5201 216.485 77.9392C218.83 79.324 220.994 80.9942 222.927 82.9115C224.235 84.1958 225.429 85.5918 226.496 87.0835C226.876 87.6083 227.125 88.0412 227.322 88.3299C227.519 88.6185 227.506 88.7759 227.506 88.7759Z" fill="#263238"/>
<path d="M190.719 163.479V167.244H175.618V164.253L183.319 156.971C185.09 155.292 185.405 154.256 185.405 153.285C185.405 151.723 184.316 150.805 182.204 150.805C181.405 150.774 180.61 150.94 179.89 151.288C179.169 151.635 178.545 152.154 178.071 152.799L174.7 150.635C175.615 149.41 176.818 148.431 178.203 147.783C179.588 147.136 181.111 146.84 182.637 146.922C187.085 146.922 190.063 149.205 190.063 152.825C190.063 154.767 189.512 156.538 186.717 159.136L182.125 163.479H190.719Z" fill="#263238"/>
<path d="M207.735 160.973C207.735 164.502 205.111 167.532 199.417 167.532C196.721 167.582 194.071 166.839 191.794 165.394L193.631 161.852C195.286 163.038 197.276 163.667 199.312 163.649C201.621 163.649 203.051 162.691 203.051 161.025C203.051 159.359 202.014 158.401 198.393 158.401H193.29L194.313 147.158H206.501V150.871H198.17L197.856 154.662H199.482C205.386 154.767 207.735 157.43 207.735 160.973Z" fill="#263238"/>
<path d="M226.115 160.933C226.115 165.027 222.77 167.585 218.545 167.585C213.035 167.585 209.611 164.135 209.611 157.68C209.611 150.779 213.783 146.922 219.805 146.922C221.743 146.852 223.664 147.305 225.367 148.234L223.662 151.632C222.542 150.936 221.24 150.589 219.923 150.635C216.577 150.635 214.439 152.602 214.295 156.433C214.957 155.824 215.735 155.354 216.582 155.05C217.429 154.746 218.329 154.614 219.227 154.662C223.085 154.715 226.115 157.168 226.115 160.933ZM221.628 161.17C221.63 160.74 221.54 160.315 221.364 159.924C221.188 159.532 220.931 159.182 220.61 158.898C220.288 158.614 219.909 158.401 219.499 158.275C219.089 158.148 218.656 158.111 218.23 158.165C217.803 158.12 217.372 158.163 216.962 158.292C216.553 158.421 216.174 158.633 215.85 158.915C215.527 159.197 215.264 159.543 215.08 159.931C214.896 160.319 214.794 160.74 214.78 161.17C214.78 162.875 216.092 164.135 218.296 164.135C218.715 164.185 219.139 164.145 219.542 164.019C219.944 163.893 220.315 163.683 220.63 163.402C220.945 163.122 221.197 162.778 221.369 162.393C221.541 162.008 221.629 161.591 221.628 161.17Z" fill="#263238"/>
<path d="M192.227 182.213V173.895L188.16 180.928H187.806L183.739 173.922V182.213H183.044V172.492H183.647L187.99 180.009L192.332 172.492H192.923V182.213H192.227Z" fill="#263238"/>
<path d="M203.313 178.605C203.335 179.087 203.258 179.568 203.086 180.018C202.914 180.468 202.651 180.878 202.314 181.223C201.977 181.567 201.572 181.839 201.126 182.021C200.679 182.202 200.2 182.29 199.719 182.279C199.109 182.294 198.507 182.138 197.983 181.827C197.458 181.516 197.032 181.063 196.754 180.521V182.226H196.084V171.914H196.78V176.624C197.065 176.097 197.49 175.658 198.009 175.357C198.527 175.056 199.119 174.905 199.719 174.919C200.202 174.907 200.682 174.996 201.129 175.178C201.577 175.361 201.982 175.633 202.319 175.979C202.656 176.325 202.919 176.737 203.09 177.189C203.261 177.64 203.337 178.123 203.313 178.605ZM202.618 178.605C202.595 178.033 202.404 177.48 202.07 177.015C201.735 176.55 201.271 176.193 200.736 175.989C200.2 175.785 199.617 175.743 199.057 175.868C198.498 175.993 197.988 176.279 197.59 176.691C197.192 177.103 196.924 177.623 196.819 178.187C196.714 178.75 196.776 179.332 196.999 179.86C197.221 180.388 197.594 180.839 198.07 181.157C198.547 181.475 199.106 181.646 199.679 181.649C200.076 181.657 200.471 181.583 200.838 181.431C201.205 181.28 201.537 181.054 201.812 180.768C202.088 180.482 202.302 180.143 202.441 179.771C202.579 179.399 202.64 179.002 202.618 178.605Z" fill="#263238"/>
<path d="M212.681 178.605C212.704 179.086 212.628 179.567 212.458 180.017C212.288 180.467 212.026 180.878 211.69 181.222C211.354 181.567 210.95 181.839 210.505 182.021C210.059 182.202 209.58 182.29 209.099 182.279C208.498 182.294 207.904 182.143 207.383 181.842C206.862 181.541 206.434 181.102 206.147 180.573V184.916H205.452V174.971H206.121V176.677C206.403 176.134 206.832 175.682 207.358 175.371C207.885 175.061 208.488 174.904 209.099 174.919C209.581 174.907 210.061 174.996 210.508 175.178C210.955 175.361 211.359 175.634 211.695 175.98C212.031 176.326 212.292 176.738 212.462 177.19C212.632 177.641 212.706 178.123 212.681 178.605ZM211.985 178.605C211.962 178.032 211.771 177.479 211.436 177.013C211.101 176.548 210.636 176.191 210.1 175.988C209.564 175.785 208.979 175.743 208.42 175.869C207.86 175.995 207.35 176.283 206.953 176.696C206.555 177.109 206.288 177.631 206.185 178.195C206.081 178.759 206.145 179.341 206.37 179.869C206.594 180.396 206.969 180.846 207.447 181.163C207.925 181.48 208.486 181.649 209.06 181.649C209.456 181.655 209.849 181.58 210.214 181.427C210.58 181.275 210.91 181.049 211.184 180.763C211.459 180.478 211.671 180.139 211.809 179.768C211.947 179.396 212.007 179.001 211.985 178.605Z" fill="#263238"/>
<path d="M213.757 181.334L214.085 180.783C214.835 181.364 215.76 181.674 216.708 181.662C218.23 181.662 218.847 181.111 218.847 180.35C218.847 178.238 214.032 179.786 214.032 176.939C214.032 175.85 214.95 174.958 216.787 174.958C217.67 174.943 218.537 175.19 219.28 175.667L218.952 176.218C218.312 175.777 217.551 175.547 216.774 175.562C215.357 175.562 214.727 176.152 214.727 176.874C214.727 179.065 219.542 177.516 219.542 180.285C219.542 181.465 218.519 182.266 216.682 182.266C215.629 182.3 214.596 181.971 213.757 181.334Z" fill="#263238"/>
<path d="M37.7449 58.496C34.3076 53.7599 24.0612 50.8211 18.3017 51.9363C15.1662 52.5135 12.3061 54.0354 9.31487 55.1374C6.32362 56.2395 2.96501 56.8955 0 55.7409C9.18367 64.2555 27.2099 65.2657 37.7449 58.5354" fill="#AC1502"/>
</svg>
